<?xml version="1.0" encoding="UTF-8"?>
<svg width="184.24mm" height="202.6mm" version="1.1" viewBox="0 0 184.24 202.6" xmlns="http://www.w3.org/2000/svg" xmlns:cc="http://creativecommons.org/ns#" xmlns:dc="http://purl.org/dc/elements/1.1/" xmlns:rdf="http://www.w3.org/1999/02/22-rdf-syntax-ns#">
 <metadata>
  <rdf:RDF>
   <cc:Work rdf:about="">
    <dc:format>image/svg+xml</dc:format>
    <dc:type rdf:resource="http://purl.org/dc/dcmitype/StillImage"/>
    <dc:title/>
   </cc:Work>
  </rdf:RDF>
 </metadata>
 <g transform="translate(24.841,34.022)" fill="none" stroke="#fff" stroke-linecap="round" stroke-width="5.2917">
  <path d="m-6.3401 56.701c-1.0593-9.6427-0.4816-19.463 1.7009-28.915 2.2345-9.6775 6.161-18.982 11.717-27.214 5.2393-7.7628 11.924-14.557 19.655-19.844 7.6233-5.2134 16.269-8.9557 25.324-10.772 9.5729-1.9205 19.521-1.68 29.104 0.18899 9.7188 1.8954 19.154 5.4838 27.403 10.961 7.7671 5.1575 14.411 11.945 19.655 19.655 5.0936 7.4887 8.8973 15.897 10.772 24.757 1.756 8.2984 1.8096 16.847 2.0789 25.324 0.054 1.7012 0.11703 3.4021 0.18899 5.1027" stroke-linejoin="round"/>
  <path d="m-4.4502 89.018c-3.1013 0.41985-6.3329-0.18606-9.0714-1.7009-3.3915-1.876-5.9502-5.0873-7.3705-8.6935-1.3651-3.4659-1.7184-7.3627-0.75596-10.961 1.0017-3.7453 3.4605-7.1082 6.8036-9.0714 2.5453-1.4947 5.5657-2.1659 8.5045-1.8899"/>
  <path d="m138.8 88.923c2.6865 0.4719 5.5039 0.1736 8.032-0.85045 2.3412-0.94832 4.4222-2.5077 6.0476-4.4412 1.938-2.3055 3.2313-5.149 3.6853-8.1265 0.40935-2.6849 0.13839-5.4676-0.75595-8.032-0.75407-2.1622-1.9487-4.1708-3.4963-5.8586-1.3735-1.498-3.0199-2.7403-4.8192-3.6853-1.9414-1.0195-4.063-1.6946-6.2366-1.9844" stroke-linejoin="round"/>
  <path d="m136.53 94.876c-1.528 2.5918-3.5223 4.9078-5.8586 6.8036-2.6198 2.1257-5.6625 3.7176-8.8824 4.7247-3.6517 1.1421-7.5586 1.5328-11.339 0.94494-3.6914-0.574-7.233-2.0838-10.205-4.3467-2.4152-1.8388-4.4378-4.1456-6.8036-6.0476-2.9399-2.3636-6.3874-4.0727-10.016-5.1027-4.5257-1.2844-9.2807-1.518-13.985-1.5119-3.9748 0.0051-7.9507 0.17577-11.906 0.56696-3.6424 0.36022-7.3485 0.93344-10.583 2.6458-3.2674 1.7297-5.8439 4.5086-8.8824 6.6146-2.1805 1.5113-4.5847 2.6659-6.9926 3.7798-3.6074 1.6688-7.3662 3.2891-11.339 3.4018-4.34 0.12312-8.543-1.5767-12.284-3.7798-3.2984-1.9423-6.3535-4.2972-9.0714-6.9926m70.304 69.359c4.5178-2.35 8.8776-5.0038 13.04-7.9375 5.3897-3.7985 10.437-8.0566 15.497-12.284 6.0975-5.0943 12.239-10.166 17.765-15.875 4.5925-4.7446 8.7473-9.921 12.284-15.497 3.8583-6.0826 6.9754-12.635 9.2604-19.466m-72.76 69.548-1.3229-7.3705 6.2366 8.8824m-70.304-69.359c2.15 7.3055 5.5533 14.24 10.016 20.411 3.0136 4.1664 6.4938 7.9714 10.016 11.717 3.5408 3.7652 7.1367 7.4847 10.961 10.961 4.4426 4.0384 9.1815 7.7378 13.985 11.339 4.1261 3.0935 8.3073 6.1203 12.662 8.8824 2.5279 1.6033 5.1129 3.1165 7.7485 4.5357" stroke-linejoin="round" style="paint-order:normal"/>
 </g>
 <path d="m64.236 56.327c2.2576-0.32085 4.5283-0.71694 6.8036-0.56696 0.89485 0.05898 1.7888 0.20382 2.6345 0.50234 0.84565 0.29853 1.6434 0.75509 2.2792 1.3875 1.0868 1.081 1.6379 2.6261 1.7009 4.1577 0.03696 0.89852-0.08538 1.8106-0.4256 2.6431-0.34023 0.83243-0.90538 1.5823-1.6533 2.0816-0.83483 0.55742-1.8448 0.77916-2.8348 0.94494-1.374 0.23009-2.7646 0.37396-4.1577 0.37798-4.0048 0.01156-7.92-1.1266-11.906-1.5119-3.0296-0.29284-6.1123-0.14574-9.0714 0.56696-1.9959 0.4807-3.9204 1.2132-5.8586 1.8899-1.9009 0.66371-3.823 1.2765-5.6696 2.0789-0.57333 0.24912-1.1433 0.51784-1.7514 0.66294-0.60804 0.14509-1.2683 0.15813-1.8394-0.09597-0.51246-0.228-0.92463-0.66764-1.1295-1.1898s-0.20268-1.1203-0.0044-1.645c0.15191-0.40207 0.41192-0.75647 0.71305-1.0632 0.30113-0.30668 0.64389-0.56898 0.98784-0.82672 2.0871-1.564 4.274-3.0072 6.6146-4.1577 2.4179-1.1886 4.9804-2.0558 7.5595-2.8348 3.3518-1.0125 6.7513-1.8831 10.205-2.4568 2.2588-0.37519 4.5366-0.62276 6.8036-0.94494z" fill="#fff" stroke-width="0"/>
 <g transform="translate(24.841,34.022)" fill="none" stroke="#fff">
  <path d="m84.752 48.574c-3.2789 3.6628-5.0555 8.5205-5.4807 13.418-0.41582 4.7904 0.42737 9.7191 2.6458 13.985 1.7039 3.2765 4.1793 6.112 6.9926 8.5045 2.6838 2.2823 5.7219 4.1996 9.0714 5.2917 4.0664 1.3258 8.5061 1.3879 12.662 0.37798 4.5147-1.0971 8.7007-3.4423 12.095-6.6146 3.1409-2.9353 5.6172-6.5791 7.1816-10.583 1.4267-3.6521 2.0953-7.6273 1.7009-11.528-0.41175-4.0724-1.9808-7.9992-4.3467-11.339-2.7718-3.913-6.6244-7.0254-10.961-9.0714-4.4523-2.1004-9.5094-3.0903-14.363-2.2679-4.4005 0.74562-8.437 2.9239-12.095 5.4807-1.8355 1.2829-3.609 2.6782-5.1027 4.3467z" stroke-width="2.6458"/>
  <path d="m44.309 44.417c-3.2082-2.3935-6.6795-4.5966-10.583-5.4807-3.3524-0.75914-6.8822-0.50055-10.205 0.37798-3.3144 0.87622-6.4638 2.3638-9.2604 4.3467-3.0407 2.156-5.6739 4.9111-7.5595 8.1265-1.663 2.8358-2.7328 6.0082-3.2128 9.2604-0.57733 3.9118-0.29862 7.9637 0.94494 11.717 1.164 3.5134 3.1586 6.7303 5.6696 9.4494 2.187 2.3682 4.7922 4.3844 7.7485 5.6696 2.5049 1.089 5.2179 1.6372 7.9375 1.8899 2.454 0.22798 4.9401 0.21973 7.3705-0.18899 3.8182-0.6421 7.4418-2.2725 10.583-4.5357 3.1049-2.2368 5.7752-5.1192 7.5595-8.5045 1.7494-3.319 2.6158-7.0427 3.0238-10.772 0.41761-3.8173 0.34942-7.7972-1.1339-11.339-1.745-4.1669-5.2616-7.315-8.8824-10.016z" stroke-width="2.6458"/>
  <path d="m60.373 57.079c1.7203-1.0036 3.681-1.5918 5.6696-1.7009 2.7991-0.15354 5.6421 0.65875 7.9375 2.2679" stroke-linecap="round" stroke-width="3.9688"/>
  <path d="m73.98 57.646c1.3963-5.6101 4.2178-10.859 8.1265-15.119 5.131-5.5917 12.275-9.4673 19.844-10.016 4.4712-0.32434 8.9698 0.49191 13.229 1.8899 4.6143 1.5145 9.0495 3.7469 12.662 6.9926 3.2894 2.9552 5.8324 6.7016 7.5595 10.772 2.3621 5.5672 3.2066 11.791 2.2679 17.765-0.95823 6.0985-3.7739 11.884-7.9375 16.442-4.9602 5.43-11.82 9.0791-19.088 10.205-5.3084 0.82261-10.825 0.31868-15.875-1.5119-3.6221-1.313-6.9856-3.2909-10.016-5.6696-2.7846-2.1855-5.3189-4.7383-7.1815-7.7485-2.0484-3.3103-3.2386-7.1063-3.7798-10.961-0.26878-1.9147-0.39068-3.8847-1.1339-5.6696-0.38628-0.92765-0.944-1.7959-1.7009-2.4568-1.2705-1.1095-3.0544-1.5581-4.7247-1.3229-1.027 0.1446-2.0221 0.53632-2.854 1.1557-0.83192 0.61936-1.4967 1.4677-1.8707 2.4351-0.57467 1.4863-0.44549 3.1358-0.56696 4.7247-0.15897 2.0794-0.75929 4.1027-1.5119 6.0476-1.6584 4.2856-4.0993 8.301-7.3705 11.528-3.5298 3.4823-7.9618 5.981-12.662 7.5595-5.7576 1.9335-12.038 2.5094-17.954 1.1339-5.9131-1.3749-11.311-4.6747-15.497-9.0714-4.1916-4.4024-7.2155-9.9345-8.5045-15.875-1.6178-7.456-0.42189-15.509 3.4018-22.112 3.4587-5.972 8.9779-10.669 15.308-13.418 7.5924-3.2971 16.483-3.7751 24.19-0.75595 5.7555 2.2546 10.7 6.3601 14.363 11.339 2.4819 3.3738 4.4057 7.1572 5.6696 11.15" stroke-linecap="round" stroke-width="3.9688"/>
  <path d="m138.8 88.923-2.2679 5.9531" stroke-width="5.2917"/>
  <path d="m-4.4502 89.018 2.8348 7.5595" stroke-linecap="round" stroke-width="5.2917"/>
 </g>
 <path d="m119.77 56.327c-2.2576-0.32085-4.5283-0.71694-6.8036-0.56696-0.89485 0.05898-1.7888 0.20382-2.6345 0.50234-0.84565 0.29853-1.6434 0.75509-2.2792 1.3875-1.0868 1.081-1.6379 2.6261-1.7009 4.1577-0.037 0.89852 0.0854 1.8106 0.4256 2.6431 0.34023 0.83243 0.90538 1.5823 1.6533 2.0816 0.83483 0.55742 1.8448 0.77916 2.8348 0.94494 1.374 0.23009 2.7646 0.37396 4.1577 0.37798 4.0048 0.01156 7.92-1.1266 11.906-1.5119 3.0296-0.29284 6.1123-0.14574 9.0714 0.56696 1.9959 0.4807 3.9204 1.2132 5.8586 1.8899 1.9009 0.66371 3.823 1.2765 5.6696 2.0789 0.57333 0.24912 1.1433 0.51784 1.7514 0.66294 0.60803 0.14509 1.2683 0.15813 1.8394-0.09597 0.51247-0.228 0.92463-0.66764 1.1295-1.1898 0.20486-0.52214 0.20267-1.1203 4e-3 -1.645-0.15191-0.40207-0.41192-0.75647-0.71305-1.0632-0.30114-0.30668-0.64389-0.56898-0.98784-0.82672-2.0871-1.564-4.274-3.0072-6.6146-4.1577-2.4179-1.1886-4.9804-2.0558-7.5595-2.8348-3.3518-1.0125-6.7513-1.8831-10.205-2.4568-2.2588-0.37519-4.5366-0.62276-6.8036-0.94494z" fill="#fff" stroke-width="0"/>
 <path d="m70.869 146.34c0.14078 1.6112 1.0389 3.0811 2.1923 4.2149 1.1533 1.1338 2.5553 1.9761 3.9466 2.8009 2.6289 1.5585 5.2932 3.1043 8.1851 4.0926 3.553 1.2142 7.4143 1.5496 11.108 0.87698 4.715-0.8585 9.0019-3.299 12.862-6.1388 1.0654-0.78376 2.1143-1.6083 2.9724-2.6149 0.85806-1.0066 1.5217-2.2141 1.7048-3.524 0.12606-0.90188 0.0196-1.8331-0.28942-2.6897-0.30897-0.85663-0.81844-1.6381-1.4645-2.2798-0.83606-0.83045-1.8887-1.4206-2.9953-1.8255s-2.2703-0.63193-3.4359-0.80541c-4.442-0.66113-8.9562-0.56478-13.447-0.58465-4.2006-0.0186-8.432-0.13788-12.57 0.58465-1.29 0.22524-2.572 0.53378-3.7795 1.0405-1.2075 0.50674-2.3421 1.2184-3.2363 2.1751-1.1711 1.2529-1.9032 2.9687-1.754 4.6772z" fill="none" stroke="#fff" stroke-width="2.6458"/>
</svg>
